<svg width="32px" height="32px" viewBox="0 0 32 32" version="1.1" xmlns="http://www.w3.org/2000/svg" xmlns:xlink="http://www.w3.org/1999/xlink" >
						<g stroke="none" stroke-width="1" fill="none" fill-rule="evenodd">
							<g
								transform="translate(-656.000000, -7107.000000)"
								fill="#FFFFFF"
								fill-rule="nonzero"
							>
								<g transform="translate(143.000000, 7050.000000)">
									<g transform="translate(307.000000, 0.000000)">
										<g transform="translate(0.000000, 49.000000)">
											<g transform="translate(198.000000, 0.000000)">
												<g
													id="Group-12"
													transform="translate(8.000000, 8.000000)"
												>
													<rect
														id="Rectangle"
														x="6.50734694"
														y="11.0938776"
														width="4.05428571"
														height="14.6906122"
													></rect>
													<path d="M24.1118367,11.0938776 C21.1216327,9.95346939 18.957551,11.8840816 18.0326531,12.9616327 L18.0326531,11.0938776 L13.9918367,11.0938776 L13.9918367,25.7844898 L18.0326531,25.7844898 L18.0326531,18.035102 C18.0096483,17.052897 18.3685688,16.1000677 19.0338776,15.3771429 C19.4177885,14.925236 19.972513,14.6535674 20.564898,14.6273469 C21.2271392,14.6146412 21.8659458,14.8724338 22.3338776,15.3412245 C22.8360508,15.8660212 23.1104081,16.5680532 23.0971429,17.2942857 L23.0971429,25.7844898 L27.6587755,25.7844898 L27.6587755,16.6881633 C27.6587755,16.6881633 28.1661224,12.6114286 24.1118367,11.0938776 Z"></path>
													<circle
														id="Oval"
														cx="8.5322449"
														cy="6.5322449"
														r="2.5322449"
													></circle>
												</g>
											</g>
						</g>
					</g>
			</g>
		</g>
	</g>
</svg>