<?xml version="1.0" encoding="UTF-8"?>
<svg width="107px" height="28px" viewBox="0 0 107 28" version="1.1" xmlns="http://www.w3.org/2000/svg" xmlns:xlink="http://www.w3.org/1999/xlink">
    <title>Atom / Logo / Mini</title>
    <defs>
        <path d="M6.409713,-2.58960077e-16 L11.590287,2.58960077e-16 C13.8190838,-1.50463262e-16 14.6272994,0.232064028 15.4421143,0.667831759 C16.2569291,1.10359949 16.8964005,1.74307093 17.3321682,2.55788574 C17.767936,3.37270056 18,4.18091615 18,6.409713 L18,11.590287 C18,13.8190838 17.767936,14.6272994 17.3321682,15.4421143 C16.8964005,16.2569291 16.2569291,16.8964005 15.4421143,17.3321682 C14.6272994,17.767936 13.8190838,18 11.590287,18 L6.409713,18 C4.18091615,18 3.37270056,17.767936 2.55788574,17.3321682 C1.74307093,16.8964005 1.10359949,16.2569291 0.667831759,15.4421143 C0.232064028,14.6272994 1.00308841e-16,13.8190838 -1.72640051e-16,11.590287 L1.72640051e-16,6.409713 C-1.00308841e-16,4.18091615 0.232064028,3.37270056 0.667831759,2.55788574 C1.10359949,1.74307093 1.74307093,1.10359949 2.55788574,0.667831759 C3.37270056,0.232064028 4.18091615,1.50463262e-16 6.409713,-2.58960077e-16 Z" id="path-1"></path>
        <path d="M6.409713,-2.58960077e-16 L11.590287,2.58960077e-16 C13.8190838,-1.50463262e-16 14.6272994,0.232064028 15.4421143,0.667831759 C16.2569291,1.10359949 16.8964005,1.74307093 17.3321682,2.55788574 C17.767936,3.37270056 18,4.18091615 18,6.409713 L18,11.590287 C18,13.8190838 17.767936,14.6272994 17.3321682,15.4421143 C16.8964005,16.2569291 16.2569291,16.8964005 15.4421143,17.3321682 C14.6272994,17.767936 13.8190838,18 11.590287,18 L6.409713,18 C4.18091615,18 3.37270056,17.767936 2.55788574,17.3321682 C1.74307093,16.8964005 1.10359949,16.2569291 0.667831759,15.4421143 C0.232064028,14.6272994 1.00308841e-16,13.8190838 -1.72640051e-16,11.590287 L1.72640051e-16,6.409713 C-1.00308841e-16,4.18091615 0.232064028,3.37270056 0.667831759,2.55788574 C1.10359949,1.74307093 1.74307093,1.10359949 2.55788574,0.667831759 C3.37270056,0.232064028 4.18091615,1.50463262e-16 6.409713,-2.58960077e-16 Z" id="path-3"></path>
    </defs>
    <g id="Atom-/-Logo-/-Mini" stroke="none" stroke-width="1" fill="none" fill-rule="evenodd">
        <g id="Icon" transform="translate(79.000000, 0.000000)">
            <g transform="translate(10.000000, 10.000000)">
                <mask id="mask-2" fill="white">
                    <use xlink:href="#path-1"></use>
                </mask>
                <use id="Rectangle" fill="#F34747" fill-rule="nonzero" transform="translate(9.000000, 9.000000) rotate(-360.000000) translate(-9.000000, -9.000000) " xlink:href="#path-1"></use>
            </g>
            <g>
                <mask id="mask-4" fill="white">
                    <use xlink:href="#path-3"></use>
                </mask>
                <use id="Rectangle" fill="#00DDB3" fill-rule="nonzero" transform="translate(9.000000, 9.000000) rotate(-360.000000) translate(-9.000000, -9.000000) " xlink:href="#path-3"></use>
                <path d="M16.409713,10 L21.590287,10 C23.8190838,10 24.6272994,10.232064 25.4421143,10.6678318 C26.2569291,11.1035995 26.8964005,11.7430709 27.3321682,12.5578857 C27.767936,13.3727006 28,14.1809162 28,16.409713 L28,21.590287 C28,23.8190838 27.767936,24.6272994 27.3321682,25.4421143 C26.8964005,26.2569291 26.2569291,26.8964005 25.4421143,27.3321682 C24.6272994,27.767936 23.8190838,28 21.590287,28 L16.409713,28 C14.1809162,28 13.3727006,27.767936 12.5578857,27.3321682 C11.7430709,26.8964005 11.1035995,26.2569291 10.6678318,25.4421143 C10.232064,24.6272994 10,23.8190838 10,21.590287 L10,16.409713 C10,14.1809162 10.232064,13.3727006 10.6678318,12.5578857 C11.1035995,11.7430709 11.7430709,11.1035995 12.5578857,10.6678318 C13.3727006,10.232064 14.1809162,10 16.409713,10 Z" id="Rectangle" fill="#333333" fill-rule="nonzero" mask="url(#mask-4)" transform="translate(19.000000, 19.000000) rotate(-360.000000) translate(-19.000000, -19.000000) "></path>
            </g>
        </g>
        <path d="M4.93846976,26.9716425 L4.93846976,-1.77635684e-14 L0,-1.77635684e-14 L0,26.9716425 L4.93846976,26.9716425 Z M17.8924559,27.5794542 C23.7426431,27.5794542 27.9593365,23.400749 27.9593365,17.2466559 C27.9593365,11.0925628 23.7426431,6.91385767 17.8924559,6.91385767 C12.0042804,6.91385767 7.78758697,11.0925628 7.78758697,17.2466559 C7.78758697,23.400749 12.0042804,27.5794542 17.8924559,27.5794542 Z M17.8924559,23.400749 C14.8154093,23.400749 12.8020332,21.0074906 12.8020332,17.2466559 C12.8020332,13.5617977 14.8154093,11.0925628 17.8924559,11.0925628 C20.9315142,11.0925628 22.9448903,13.5617977 22.9448903,17.2466559 C22.9448903,21.0074906 20.9315142,23.400749 17.8924559,23.400749 Z M41.4831461,27.5034778 C46.4216158,27.5034778 50.106474,23.4767255 50.106474,17.2466559 C50.106474,11.0925628 46.4975923,6.98983412 41.5211343,6.98983412 C39.0139112,6.98983412 37.0765115,7.86356339 35.670947,9.61102192 L35.670947,-1.77635684e-14 L30.7324773,-1.77635684e-14 L30.7324773,26.9716425 L35.329053,26.9716425 L35.329053,24.5024077 C36.6966292,26.5157838 38.7479936,27.5034778 41.4831461,27.5034778 Z M40.3434992,23.2108079 C37.494382,23.2108079 35.4810059,20.9315141 35.4810059,17.2466559 C35.4810059,13.599786 37.494382,11.2445158 40.3814874,11.2445158 C43.2685928,11.2445158 45.0920278,13.599786 45.0920278,17.2466559 C45.0920278,20.8935259 43.1926164,23.2108079 40.3434992,23.2108079 Z M62.3386838,27.5794542 C65.6436597,27.5794542 68.2648475,26.553772 71,23.7806313 L68.2268593,20.741573 C67.011236,21.7672552 66.023542,22.4510433 65.2257892,22.8309256 C64.4660246,23.2108079 63.5543071,23.400749 62.4526485,23.400749 C59.223649,23.400749 57.4382023,21.5393258 56.9823435,18.5382557 L70.9240235,18.5382557 C70.9620118,17.9684323 71,17.3226324 71,16.600856 C71,10.5227394 67.7330123,6.91385767 61.9208133,6.91385767 C55.8806849,6.91385767 52.1578384,11.3204922 52.1578384,17.3606206 C52.1578384,23.5527019 56.070626,27.5794542 62.3386838,27.5794542 Z M66.1754949,15.0053504 L57.0963082,15.0053504 C57.6661316,12.3841626 59.223649,10.788657 61.7688604,10.788657 C64.3900482,10.788657 65.9855538,12.3841626 66.1754949,15.0053504 Z" id="lobe" fill="#333333" fill-rule="nonzero"></path>
    </g>
</svg>
