<svg width="32px" height="32px" viewBox="0 0 32 32" version="1.1" xmlns="http://www.w3.org/2000/svg" xmlns:xlink="http://www.w3.org/1999/xlink">
						<g stroke="none" stroke-width="1" fill="none" fill-rule="evenodd">
							<g transform="translate(-458.000000, -7107.000000)">
								<g transform="translate(143.000000, 7050.000000)">
									<g transform="translate(307.000000, 0.000000)">
										<g transform="translate(0.000000, 49.000000)">
											<g id="mail" transform="translate(8.000000, 8.000000)">
												<rect
													id="bound"
													x="0"
													y="0"
													width="32"
													height="32"
												></rect>
												<path
													d="M6.66666667,8 L25.3333333,8 C26.8060927,8 28,9.19390733 28,10.6666667 L28,22.6666667 C28,24.139426 26.8060927,25.3333333 25.3333333,25.3333333 L6.66666667,25.3333333 C5.19390733,25.3333333 4,24.139426 4,22.6666667 L4,10.6666667 C4,9.19390733 5.19390733,8 6.66666667,8 Z M24.1925668,10.4528622 L16,14.8642444 L7.80743316,10.4528622 C7.3211624,10.1910241 6.71470033,10.3729627 6.45286224,10.8592335 C6.19102413,11.3455043 6.37296275,11.9519663 6.85923351,12.2138044 L15.5259001,16.8804711 C15.8218765,17.0398429 16.1781235,17.0398429 16.4740999,16.8804711 L25.1407665,12.2138044 C25.6270372,11.9519663 25.8089759,11.3455043 25.5471377,10.8592335 C25.2852996,10.3729627 24.6788376,10.1910241 24.1925668,10.4528622 Z"
													id="Combined-Shape"
													fill="#FFFFFF"
													fill-rule="nonzero"
												></path>
											</g>
										</g>
									</g>
								</g>
							</g>
						</g>
					</svg>